<svg xmlns="http://www.w3.org/2000/svg" viewBox="0 0 64 64"><g id="_03-Award" data-name="03-Award"><polygon points="19 59 17 59 17 63 21 63 21 59 19 59" style="fill:#ad362f"/><polygon points="43 59 43 63 47 63 47 59 45 59 43 59" style="fill:#ad362f"/><polygon points="41 59 23 59 21 59 21 63 43 63 43 59 41 59" style="fill:#c73e36"/><polygon points="30.15 56.03 32 55 33.85 56.03 33.5 53.86 35 52.32 32.93 52 32 50.03 31.07 52 29 52.32 30.5 53.86 30.15 56.03" style="fill:#ffcb02"/><polygon points="23 59 23 47 19 47 19 59 21 59 23 59" style="fill:#c73e36"/><polygon points="43 59 45 59 45 47 41 47 41 59 43 59" style="fill:#c73e36"/><path d="M41,59V47H23V59Zm-9.93-7L32,50.03,32.93,52l2.07.32-1.5,1.54.35,2.17L32,55l-1.85,1.03.35-2.17L29,52.32Z" style="fill:#fe4f46"/><polygon points="38 44 36 44 28 44 26 44 26 47 38 47 38 44" style="fill:#ff9102"/><path d="M36,42c-2-2-2-10-2-10H30s0,8-2,10v2h8Z" style="fill:#ffcb02"/><path d="M35,32V28.56a10.447,10.447,0,0,1-6,0V32h6Z" style="fill:#ff9102"/><polygon points="60.24 22.63 59 20 57.76 22.63 55 23.06 57 25.11 56.53 28 59 26.63 61.47 28 61 25.11 63 23.06 60.24 22.63" style="fill:#ffe480"/><polygon points="53.16 35.61 51 31 48.84 35.61 44 36.35 47.5 39.93 46.67 45 51 42.61 55.33 45 54.5 39.93 58 36.35 53.16 35.61" style="fill:#ffcb02"/><polygon points="7 25.11 9 23.06 6.24 22.63 5 20 3.76 22.63 1 23.06 3 25.11 2.53 28 5 26.63 7.47 28 7 25.11" style="fill:#ffe480"/><polygon points="16.5 39.93 20 36.35 15.16 35.61 13 31 10.84 35.61 6 36.35 9.5 39.93 8.67 45 13 42.61 17.33 45 16.5 39.93" style="fill:#ffcb02"/><path d="M35,28.56a10.379,10.379,0,0,0,7.1-7.59,8.546,8.546,0,0,0,.17-.88L43.86,9,45,1H19l1.14,8,1.59,11.09a8.546,8.546,0,0,0,.17.88A10.379,10.379,0,0,0,29,28.56a10.447,10.447,0,0,0,6,0Z" style="fill:#ffcb02"/><path d="M26.9,20.97a8.546,8.546,0,0,1-.17-.88L25.14,9,24,1H19l1.14,8,1.59,11.09a8.546,8.546,0,0,0,.17.88A10.379,10.379,0,0,0,29,28.56a10.091,10.091,0,0,0,5.5.112c-.165-.041-.338-.063-.5-.112A10.379,10.379,0,0,1,26.9,20.97Z" style="fill:#ffab02"/><path d="M20,10a1,1,0,0,1-.949-.684C19.021,9.231,18.187,7,15,7c-3.346,0-4,1.467-4,4a8.527,8.527,0,0,0,7.2,8.02l3.5.871L20.283,10Z" style="fill:none"/><path d="M45.759,19.03A8.546,8.546,0,0,0,53,11c0-2.533-.654-4-4-4-3.242,0-4.043,2.293-4.051,2.316A1,1,0,0,1,44,10h-.283L42.3,19.891Z" style="fill:none"/><path d="M30,43V42c1.54-.77,1.894-5.1,1.976-7.047a.994.994,0,0,1,1-.953h1.092C34,32.822,34,32,34,32H30s0,8-2,10v2h8V43Z" style="fill:#ffab02"/><path d="M26,44v3H38V46H30a1,1,0,0,1-1-1V44Z" style="fill:#ff7802"/><path d="M23,47V59H19V57h1a1,1,0,0,0,1-1V47Z" style="fill:#ad362f"/><path d="M41,47V59h4V57H44a1,1,0,0,1-1-1V47Z" style="fill:#ad362f"/><path d="M21,59v4H17V61h2a1,1,0,0,0,1-1V59Z" style="fill:#9c312a"/><path d="M43,59v4h4V61H45a1,1,0,0,1-1-1V59Z" style="fill:#9c312a"/><path d="M30,57a4,4,0,0,1-4-4V47H23V59H41V57Z" style="fill:#e84840"/><rect x="27" width="2" height="2"/><path d="M63.948,22.738a1,1,0,0,0-.8-.671l-2.236-.341-1.01-2.151a1,1,0,0,0-1.81,0l-1.01,2.151-2.236.341a1,1,0,0,0-.565,1.687l1.648,1.688-.391,2.4a1,1,0,0,0,1.471,1.036L59,27.776l1.988,1.1a1,1,0,0,0,1.06-.058,1,1,0,0,0,.411-.978l-.391-2.4,1.648-1.688A1,1,0,0,0,63.948,22.738Zm-3.664,1.669a1,1,0,0,0-.271.86l.141.861-.67-.37a1,1,0,0,0-.968,0l-.67.37.141-.861a1,1,0,0,0-.271-.86l-.641-.657.84-.128a1,1,0,0,0,.754-.564l.331-.7.331.7a1,1,0,0,0,.754.564l.84.128Z"/><path d="M7.472,29a1,1,0,0,0,.987-1.161l-.391-2.4,1.648-1.688a1,1,0,0,0-.565-1.687l-2.236-.341-1.01-2.151a1,1,0,0,0-1.81,0l-1.01,2.151-2.236.341a1,1,0,0,0-.565,1.687l1.648,1.688-.391,2.4a1,1,0,0,0,1.471,1.036L5,27.776l1.988,1.1A1.009,1.009,0,0,0,7.472,29ZM6.284,24.407a1,1,0,0,0-.271.86l.141.861-.67-.37a1,1,0,0,0-.968,0l-.67.37.141-.861a1,1,0,0,0-.271-.86l-.641-.657.84-.128a1,1,0,0,0,.754-.564l.331-.7.331.7a1,1,0,0,0,.754.564l.84.128Z"/><path d="M58.151,35.359,53.842,34.7l-1.937-4.126a1,1,0,0,0-1.81,0L48.158,34.7l-4.309.658a1,1,0,0,0-.565,1.687l3.148,3.225-.745,4.568a1,1,0,0,0,1.471,1.036L51,43.751l3.842,2.124a1,1,0,0,0,1.06-.058,1,1,0,0,0,.411-.978l-.745-4.568,3.148-3.225a1,1,0,0,0-.565-1.687Zm-4.367,3.877a1,1,0,0,0-.271.86l.5,3.032-2.524-1.4a1,1,0,0,0-.968,0l-2.524,1.4.5-3.032a1,1,0,0,0-.271-.86l-2.141-2.194,2.913-.445a1,1,0,0,0,.754-.564L51,33.354l1.258,2.679a1,1,0,0,0,.754.564l2.913.445Z"/><path d="M17.326,46a1,1,0,0,0,.987-1.161l-.745-4.568,3.148-3.225a1,1,0,0,0-.565-1.687L15.842,34.7l-1.937-4.126a1,1,0,0,0-1.81,0L10.158,34.7l-4.309.658a1,1,0,0,0-.565,1.687l3.148,3.225-.745,4.568a1,1,0,0,0,1.471,1.036L13,43.751l3.842,2.124A1.009,1.009,0,0,0,17.326,46Zm-3.842-4.267a1,1,0,0,0-.968,0l-2.524,1.4.495-3.032a1,1,0,0,0-.271-.86L8.075,37.042l2.913-.445a1,1,0,0,0,.754-.564L13,33.354l1.258,2.679a1,1,0,0,0,.754.564l2.913.445-2.141,2.194a1,1,0,0,0-.271.86l.495,3.032Z"/><path d="M35.151,51.331,33.6,51.1l-.7-1.491a1,1,0,0,0-1.81,0L30.4,51.1l-1.546.236a1,1,0,0,0-.565,1.687l1.148,1.176-.273,1.673A1,1,0,0,0,30.63,56.9L32,56.146l1.37.757a1,1,0,0,0,1.471-1.036l-.273-1.673,1.148-1.176a1,1,0,0,0-.565-1.687Zm-2.367,1.828a1,1,0,0,0-.271.86l.023.138-.052-.029a1,1,0,0,0-.968,0l-.052.029.023-.138a1,1,0,0,0-.271-.86l-.141-.144.149-.023a1,1,0,0,0,.754-.564L32,52.381l.022.047a1,1,0,0,0,.754.564l.149.023Z"/><path d="M47,58H46V47a1,1,0,0,0-1-1H39V44a1,1,0,0,0-1-1H37V42a1,1,0,0,0-.293-.707c-1.111-1.111-1.6-5.32-1.69-8.3A1,1,0,0,0,36,32V29.264A11.469,11.469,0,0,0,42.91,21.8L46.2,20.98C51.3,19.96,55,15.763,55,11c0-2.576-.622-6-6-6a6.736,6.736,0,0,0-3.7,1l.694-4.854A1,1,0,0,0,45,0H31V2H43.847L41.283,19.949a9.377,9.377,0,0,1-18.566,0L20.153,2H25V0H19a1,1,0,0,0-.99,1.142L18.7,6A6.736,6.736,0,0,0,15,5C9.622,5,9,8.424,9,11c0,4.763,3.7,8.96,8.757,9.97l3.333.833A11.467,11.467,0,0,0,28,29.264V32a1,1,0,0,0,.983,1c-.092,2.976-.579,7.185-1.69,8.3A1,1,0,0,0,27,42v1H26a1,1,0,0,0-1,1v2H19a1,1,0,0,0-1,1V58H17a1,1,0,0,0-1,1v4a1,1,0,0,0,1,1H47a1,1,0,0,0,1-1V59A1,1,0,0,0,47,58ZM44.949,9.316C44.957,9.293,45.758,7,49,7c3.346,0,4,1.467,4,4a8.546,8.546,0,0,1-7.243,8.03l-2.409.6L44.779,9.62A1.006,1.006,0,0,0,44.949,9.316ZM11,11c0-2.533.654-4,4-4,3.187,0,4.021,2.231,4.051,2.316a1.006,1.006,0,0,0,.17.3l1.431,10.013L18.2,19.02A8.527,8.527,0,0,1,11,11ZM32,30a11.22,11.22,0,0,0,2-.182V31H30V29.818A11.22,11.22,0,0,0,32,30ZM29,42.37c1.6-2.1,1.922-7.054,1.985-9.37h2.03c.063,2.316.386,7.266,1.985,9.37V43H29ZM27,45H37v1H27ZM18,60h2v2H18Zm2-2V48h2V58H20Zm22,4H22V60H36V58H24V48H40V58H38v2h4Zm0-4V48h2V58H42Zm4,4H44V60h2Z"/></g></svg>